<?xml version="1.0" standalone="yes"?>
<svg xmlns="http://www.w3.org/2000/svg" width="255" height="197">
<path style="fill:#fefefe; stroke:none;" d="M0 0L0 197L255 197L255 0L0 0z"/>
<path style="fill:#9fa6be; stroke:none;" d="M131 54C113.252 41.4747 86.3071 48.9944 83.2894 72C80.4967 93.2898 98.0402 112.938 113 125.561C117.199 129.104 125.079 137.352 131 137.068C135.561 136.849 140.602 131.469 144 128.789C151.343 122.998 158.53 116.362 164.331 109C171.438 99.9809 177.748 88.769 177.985 77C178.435 54.5527 148.965 36.0009 131 54z"/>
<path style="fill:#d01d22; stroke:none;" d="M86 68C96.8371 75.3719 107.514 83.0093 118 90.8735C124.708 95.9042 131.315 101.068 138 106.13C141.655 108.897 148.059 116.247 152.999 115.883C159.747 115.386 174.152 94.7255 172.292 88.0147C170.43 81.2997 158.356 74.8335 153 70.8843C134.619 57.3304 97.814 33.3721 86 68z"/>
<path style="fill:#eeb018; stroke:none;" d="M133 54C143.51 63.1335 162.837 76.7984 176 81C176 55.4697 156.613 43.0069 133 54z"/>
<path style="fill:#374d9c; stroke:none;" d="M86 71C80.2603 90.4618 100.55 112.312 114 123.385C118.118 126.775 124.491 133.609 130 134.259C134.044 134.736 147.994 125.742 146.654 121.13C144.981 115.372 133.524 109.067 129 105.389C123.305 100.759 117.731 95.9862 112 91.3997C103.455 84.5612 95.1272 77.0365 86 71z"/>
</svg>
