<svg id="svg" version="1.1" xmlns="http://www.w3.org/2000/svg" xmlns:xlink="http://www.w3.org/1999/xlink" width="400" height="242.27272727272728" viewBox="0, 0, 400,242.27272727272728"><g id="svgg"><path id="path0" d="M150.212 24.877 C 124.131 27.548,108.798 39.306,101.968 61.873 C 100.837 65.608,100.391 64.842,105.978 68.752 C 108.386 70.438,113.846 74.321,118.110 77.381 C 122.374 80.441,127.062 83.796,128.528 84.835 C 131.811 87.163,138.169 91.724,139.312 92.570 C 139.777 92.914,141.520 94.178,143.186 95.378 C 154.332 103.408,162.725 109.496,165.960 111.899 C 177.019 120.112,179.804 122.186,186.795 127.419 C 190.991 130.561,198.351 136.122,203.148 139.777 C 207.946 143.432,213.671 147.786,215.869 149.452 C 218.068 151.119,220.739 153.150,221.805 153.966 C 222.871 154.782,225.651 156.909,227.983 158.692 C 231.949 161.726,238.767 167.062,246.818 173.437 C 249.270 175.378,250.396 176.129,250.708 176.030 C 251.214 175.869,259.564 167.470,263.489 163.174 C 274.174 151.477,281.371 141.695,288.421 129.287 C 289.394 127.574,292.239 121.800,293.151 119.685 C 293.583 118.686,294.077 117.541,294.250 117.141 C 294.682 116.144,296.199 112.052,296.630 110.721 C 297.096 109.285,297.094 109.283,293.470 106.346 C 288.181 102.060,273.049 89.978,265.536 84.042 C 249.554 71.415,225.736 54.743,207.268 43.256 C 203.671 41.018,200.345 38.939,199.879 38.637 C 194.299 35.022,187.871 31.856,181.378 29.524 C 171.461 25.963,158.489 24.029,150.212 24.877 M240.824 25.561 C 234.282 25.974,228.424 27.051,222.532 28.922 C 219.102 30.011,217.787 30.473,217.266 30.771 C 217.034 30.903,216.738 31.012,216.606 31.012 C 216.475 31.012,215.738 31.296,214.968 31.643 C 214.198 31.991,213.186 32.442,212.720 32.647 C 210.469 33.632,207.392 35.278,207.391 35.496 C 207.389 35.757,207.896 36.117,209.449 36.959 C 209.982 37.248,210.854 37.734,211.387 38.039 C 211.920 38.344,212.956 38.923,213.689 39.325 C 214.422 39.728,215.437 40.317,215.946 40.635 C 216.827 41.187,217.394 41.516,219.443 42.667 C 219.942 42.947,220.460 43.260,220.594 43.361 C 220.727 43.462,221.326 43.817,221.926 44.149 C 224.186 45.401,224.962 45.848,225.197 46.034 C 225.330 46.140,226.638 46.928,228.104 47.787 C 230.552 49.220,235.599 52.250,236.463 52.805 C 236.663 52.933,237.317 53.332,237.916 53.691 C 240.495 55.236,251.491 62.141,255.360 64.647 C 261.293 68.487,276.819 78.739,277.529 79.285 C 277.867 79.545,281.312 81.919,283.343 83.293 C 287.060 85.806,293.921 90.711,298.221 93.928 C 299.652 94.999,299.780 94.828,300.196 91.287 C 301.344 81.502,299.818 67.649,296.651 59.116 C 296.478 58.649,296.213 57.860,296.061 57.363 C 295.909 56.865,295.684 56.395,295.561 56.319 C 295.437 56.242,295.336 56.014,295.336 55.811 C 295.336 55.442,293.922 52.504,292.437 49.788 C 284.689 35.617,268.506 26.291,250.394 25.559 C 248.395 25.478,246.487 25.378,246.154 25.337 C 245.821 25.296,243.422 25.397,240.824 25.561 " stroke="none" fill="#dc371d" fill-rule="evenodd"></path><path id="path1" d="M99.853 72.983 C 99.075 77.055,98.763 89.816,99.343 93.836 C 100.721 103.387,101.969 108.310,104.975 116.061 C 115.984 144.441,144.853 176.905,185.100 206.160 C 190.677 210.214,199.790 216.596,200.003 216.596 C 200.205 216.596,207.871 211.243,211.750 208.393 C 224.341 199.142,240.123 186.383,240.086 185.485 C 240.080 185.340,238.533 183.967,236.648 182.435 C 234.763 180.902,226.727 174.249,218.791 167.650 C 205.802 156.850,199.990 152.065,191.136 144.882 C 189.575 143.616,184.335 139.358,179.491 135.419 C 174.648 131.480,168.995 126.894,166.929 125.228 C 162.613 121.745,158.324 118.270,154.331 115.018 C 139.823 103.204,122.278 89.085,114.355 82.849 C 111.090 80.279,106.675 76.795,104.543 75.106 C 102.411 73.418,100.538 71.962,100.381 71.872 C 100.189 71.761,100.018 72.120,99.853 72.983 " stroke="none" fill="#144495" fill-rule="evenodd"></path><path id="path2" d="M0.000 121.139 L 0.000 242.277 200.000 242.277 L 400.000 242.277 400.000 121.139 L 400.000 0.000 200.000 0.000 L 0.000 0.000 0.000 121.139 M160.509 18.910 C 161.308 19.049,163.380 19.370,165.112 19.623 C 170.671 20.438,175.672 21.561,179.649 22.890 C 184.429 24.487,194.199 28.934,197.988 31.237 C 199.997 32.458,199.778 32.468,202.715 31.012 C 205.449 29.656,205.694 29.596,205.694 30.285 C 205.694 30.590,205.532 30.769,205.257 30.769 C 204.752 30.769,204.240 31.215,204.240 31.655 C 204.240 31.823,203.805 32.428,203.274 33.000 C 202.742 33.572,202.306 34.157,202.305 34.301 C 202.303 34.444,202.029 34.817,201.696 35.130 C 201.363 35.443,201.090 35.836,201.090 36.003 C 201.090 36.433,199.911 37.307,199.301 37.330 C 198.946 37.343,198.899 37.392,199.148 37.490 C 199.345 37.567,199.632 37.756,199.785 37.909 C 200.083 38.207,206.088 42.095,211.024 45.186 C 216.928 48.883,232.706 59.207,233.619 59.970 C 233.853 60.166,234.153 60.327,234.285 60.327 C 234.417 60.327,234.525 60.436,234.525 60.569 C 234.525 60.703,234.688 60.812,234.888 60.812 C 235.088 60.812,235.251 60.909,235.251 61.028 C 235.251 61.146,235.524 61.312,235.857 61.396 C 236.190 61.479,236.463 61.655,236.463 61.785 C 236.463 61.916,236.591 62.023,236.747 62.023 C 236.904 62.023,236.803 61.778,236.523 61.478 C 235.586 60.474,235.579 59.699,236.497 58.841 C 237.230 58.156,237.307 57.958,237.272 56.842 C 237.251 56.161,237.347 55.534,237.486 55.448 C 237.627 55.361,237.511 55.220,237.222 55.128 C 236.937 55.038,236.704 54.835,236.703 54.678 C 236.703 54.520,236.403 54.213,236.037 53.995 C 235.672 53.776,234.391 52.909,233.192 52.068 C 231.993 51.227,229.594 49.670,227.862 48.608 C 223.926 46.197,215.146 40.945,215.049 40.945 C 215.010 40.945,214.061 40.393,212.940 39.719 C 211.819 39.045,209.785 37.943,208.419 37.271 C 204.697 35.438,204.763 35.255,209.933 33.009 C 221.010 28.199,227.742 26.184,236.826 24.959 C 237.759 24.834,239.285 24.626,240.218 24.498 C 241.151 24.369,243.331 24.191,245.064 24.102 C 248.508 23.925,248.683 23.879,247.971 23.332 C 247.636 23.076,247.580 22.926,247.789 22.847 C 247.956 22.785,248.089 22.497,248.084 22.209 C 248.077 21.721,248.054 21.714,247.755 22.108 C 247.244 22.781,247.140 22.621,247.157 21.191 C 247.167 20.355,247.307 19.717,247.529 19.495 C 247.909 19.115,248.334 19.023,248.335 19.322 C 248.335 19.422,249.795 19.516,251.579 19.532 C 253.363 19.548,255.516 19.680,256.364 19.825 C 266.300 21.523,269.619 22.493,275.598 25.445 C 281.654 28.435,285.131 30.932,289.897 35.714 C 295.119 40.955,299.079 47.102,301.381 53.543 C 301.548 54.010,301.767 54.609,301.869 54.876 C 302.828 57.399,302.820 57.903,301.817 57.908 C 300.694 57.912,299.939 58.154,299.939 58.509 C 299.939 58.677,299.776 58.950,299.576 59.116 C 299.325 59.324,299.213 59.333,299.213 59.145 C 299.213 58.996,299.099 58.873,298.960 58.873 C 298.821 58.873,298.729 59.010,298.756 59.176 C 298.782 59.343,298.714 59.689,298.603 59.945 C 298.358 60.512,299.069 65.246,299.679 67.111 C 299.832 67.577,300.119 68.886,300.318 70.018 C 300.901 73.337,301.719 74.612,302.027 72.683 C 302.112 72.150,302.277 71.714,302.393 71.714 C 302.509 71.714,302.604 71.564,302.604 71.380 C 302.604 71.197,302.768 70.911,302.968 70.745 C 303.168 70.579,303.331 70.082,303.331 69.639 C 303.331 69.197,303.440 68.768,303.574 68.686 C 303.707 68.603,303.816 68.270,303.816 67.945 C 303.816 67.619,304.034 67.135,304.300 66.869 C 304.567 66.602,304.672 66.384,304.534 66.384 C 304.397 66.384,304.320 66.116,304.364 65.787 C 304.467 65.017,304.785 64.694,304.785 65.360 C 304.785 65.641,304.882 65.931,305.002 66.005 C 305.121 66.078,305.279 66.548,305.353 67.049 C 305.427 67.549,305.606 68.558,305.751 69.291 C 306.946 75.321,307.268 79.341,307.129 86.493 C 306.996 93.369,306.721 95.871,305.509 101.272 C 305.404 101.738,305.187 102.720,305.027 103.452 C 304.619 105.322,304.375 106.330,304.060 107.450 C 303.911 107.983,303.680 108.855,303.547 109.388 C 303.307 110.355,302.028 114.283,301.655 115.203 C 301.547 115.469,301.121 116.505,300.710 117.505 C 300.298 118.504,299.667 120.085,299.308 121.018 C 298.948 121.950,297.628 124.711,296.375 127.153 C 294.225 131.342,293.808 132.123,292.701 134.040 C 292.451 134.473,291.871 135.482,291.414 136.281 C 288.677 141.062,283.349 148.716,277.685 156.002 C 276.687 157.286,273.253 161.398,272.399 162.332 C 271.975 162.795,270.667 164.264,269.491 165.597 C 265.305 170.341,257.655 178.053,251.367 183.867 C 247.335 187.595,246.713 188.154,245.541 189.095 C 244.878 189.627,244.064 190.335,243.731 190.669 C 243.023 191.378,237.687 195.860,234.641 198.304 C 233.479 199.237,231.532 200.799,230.316 201.776 C 229.099 202.754,226.432 204.825,224.389 206.380 C 222.345 207.934,220.437 209.389,220.149 209.612 C 218.715 210.720,207.987 218.282,204.422 220.698 C 202.190 222.210,200.363 223.541,200.363 223.656 C 200.363 223.911,199.638 223.938,199.632 223.683 C 199.629 223.583,198.219 222.465,196.497 221.199 C 193.591 219.063,192.693 218.050,193.704 218.050 C 193.906 218.050,194.291 217.913,194.559 217.747 C 194.962 217.497,195.089 217.508,195.279 217.807 C 195.433 218.049,195.512 218.069,195.514 217.868 C 195.516 217.700,195.815 217.565,196.186 217.565 C 196.586 217.565,196.973 217.376,197.148 217.095 C 197.389 216.709,197.572 216.663,198.176 216.836 C 198.579 216.952,198.910 216.992,198.910 216.925 C 198.910 216.725,198.233 216.111,198.011 216.111 C 197.898 216.111,197.648 215.893,197.456 215.627 C 197.264 215.360,196.967 215.142,196.797 215.142 C 196.626 215.142,196.487 215.033,196.487 214.900 C 196.487 214.767,196.333 214.658,196.144 214.658 C 195.955 214.658,195.764 214.575,195.720 214.473 C 195.675 214.372,194.959 213.854,194.127 213.322 C 193.295 212.791,192.614 212.274,192.613 212.174 C 192.611 212.075,192.392 211.993,192.126 211.993 C 191.859 211.993,191.641 211.866,191.641 211.710 C 191.641 211.555,191.571 211.497,191.486 211.583 C 191.400 211.669,191.475 211.913,191.652 212.126 C 191.908 212.436,191.912 212.552,191.669 212.703 C 191.445 212.841,191.417 213.205,191.565 214.077 C 191.847 215.739,191.715 216.717,191.260 216.339 C 190.985 216.111,190.915 216.132,190.915 216.445 C 190.915 216.980,190.742 216.945,189.340 216.127 C 184.038 213.032,169.192 201.938,163.053 196.484 C 162.053 195.596,160.145 193.957,158.813 192.842 C 150.106 185.556,133.833 169.413,128.092 162.366 C 126.048 159.856,125.755 159.506,125.012 158.692 C 123.205 156.710,119.975 152.899,119.057 151.665 C 112.147 142.378,111.506 141.423,107.123 133.902 C 105.315 130.800,101.272 122.737,101.272 122.233 C 101.272 122.163,100.992 121.534,100.649 120.835 C 100.307 120.136,99.808 118.964,99.542 118.231 C 99.275 117.498,98.957 116.681,98.834 116.414 C 96.848 112.105,94.354 101.959,93.533 94.852 C 93.380 93.519,93.150 91.557,93.023 90.491 C 92.720 87.947,92.728 81.967,93.039 78.619 C 93.644 72.126,93.851 70.448,94.394 67.663 C 95.090 64.095,96.704 58.318,97.628 56.087 C 97.738 55.821,98.019 55.058,98.250 54.391 C 98.671 53.182,100.517 49.333,101.446 47.729 C 104.501 42.449,106.366 39.938,109.966 36.254 C 111.381 34.807,113.301 33.014,114.234 32.270 C 115.167 31.525,115.984 30.852,116.051 30.773 C 116.245 30.543,120.392 27.862,120.554 27.862 C 120.635 27.862,121.021 27.634,121.412 27.355 C 122.307 26.718,126.083 24.866,128.286 23.984 C 131.665 22.632,137.166 21.029,140.297 20.485 C 141.553 20.267,143.045 19.984,143.613 19.857 C 144.182 19.729,145.175 19.624,145.821 19.624 C 146.468 19.624,147.584 19.502,148.301 19.353 C 151.394 18.710,157.974 18.471,160.509 18.910 M276.399 81.372 C 276.088 81.753,275.669 82.311,275.469 82.612 C 275.270 82.913,274.806 83.465,274.440 83.838 C 274.073 84.212,273.773 84.618,273.773 84.741 C 273.773 84.864,273.543 85.172,273.261 85.426 C 272.979 85.680,272.657 86.127,272.545 86.419 C 272.410 86.774,272.054 87.006,271.478 87.114 C 270.650 87.269,270.633 87.292,271.069 87.672 C 271.320 87.890,272.019 88.504,272.623 89.037 C 274.083 90.325,278.157 93.620,283.949 98.200 C 284.149 98.358,284.912 98.923,285.645 99.455 C 286.950 100.403,287.354 100.717,288.368 101.575 C 288.993 102.104,289.019 102.102,288.872 101.542 C 288.806 101.290,288.876 101.008,289.028 100.914 C 289.223 100.794,289.228 100.654,289.046 100.435 C 288.862 100.214,288.893 99.927,289.154 99.427 C 289.354 99.043,289.519 98.595,289.520 98.432 C 289.521 98.270,289.849 97.895,290.248 97.599 C 290.648 97.304,290.975 96.909,290.975 96.722 C 290.975 96.535,291.193 96.104,291.460 95.766 C 291.726 95.427,291.944 94.943,291.944 94.690 C 291.944 94.437,292.108 94.168,292.308 94.091 C 292.508 94.015,292.671 93.759,292.671 93.523 C 292.671 93.287,292.823 92.967,293.010 92.813 C 294.032 91.965,290.249 88.593,282.859 83.766 C 277.974 80.576,277.265 80.313,276.399 81.372 M153.301 104.053 C 153.372 104.420,153.271 104.853,153.059 105.096 C 152.859 105.325,152.626 105.893,152.540 106.360 C 152.455 106.826,152.114 107.465,151.783 107.778 C 151.452 108.092,151.181 108.484,151.181 108.649 C 151.181 109.274,150.257 109.821,149.467 109.663 L 148.710 109.512 149.427 110.177 C 151.175 111.796,157.626 117.230,159.996 119.079 C 161.001 119.864,166.253 124.071,167.054 124.733 C 168.380 125.830,169.093 126.400,169.832 126.953 C 170.276 127.286,170.759 127.668,170.905 127.801 C 171.050 127.935,171.715 128.476,172.381 129.005 C 173.047 129.533,173.646 130.025,173.713 130.098 C 173.780 130.171,174.677 130.870,175.708 131.651 C 176.738 132.432,177.909 133.385,178.310 133.768 C 178.711 134.151,179.094 134.464,179.162 134.464 C 179.355 134.464,182.266 136.713,182.739 137.228 C 182.973 137.483,183.213 137.643,183.273 137.583 C 183.332 137.524,183.058 137.129,182.663 136.706 C 181.965 135.960,181.959 135.930,182.432 135.677 C 182.700 135.533,182.919 135.256,182.919 135.061 C 182.919 134.866,183.028 134.706,183.162 134.706 C 183.295 134.706,183.404 134.567,183.404 134.396 C 183.404 134.226,183.622 133.929,183.889 133.737 C 184.155 133.545,184.373 133.194,184.373 132.957 C 184.373 132.720,184.482 132.526,184.615 132.526 C 184.749 132.526,184.858 132.295,184.858 132.013 C 184.858 131.619,184.970 131.530,185.342 131.627 C 185.691 131.718,185.827 131.634,185.827 131.329 C 185.827 130.692,186.715 129.778,187.165 129.950 C 187.386 130.035,187.485 129.996,187.400 129.858 C 187.204 129.541,187.674 129.553,188.286 129.880 C 188.797 130.153,189.279 129.960,188.822 129.666 C 188.303 129.331,186.710 128.032,186.164 127.498 C 185.857 127.199,185.548 126.953,185.477 126.953 C 185.346 126.953,182.415 124.790,182.193 124.528 C 182.126 124.450,181.690 124.124,181.224 123.804 C 180.757 123.483,180.321 123.162,180.254 123.089 C 180.188 123.016,179.262 122.302,178.198 121.502 C 177.134 120.703,176.098 119.919,175.896 119.761 C 175.695 119.602,174.712 118.861,173.713 118.113 C 163.475 110.453,161.680 109.140,156.827 105.752 C 153.285 103.280,153.140 103.210,153.301 104.053 M189.115 130.318 C 189.042 130.436,189.254 130.584,189.587 130.648 C 190.077 130.741,190.140 130.700,189.918 130.433 C 189.602 130.053,189.305 130.010,189.115 130.318 M128.069 155.442 C 127.835 156.053,127.892 156.204,128.407 156.339 C 128.970 156.486,129.064 156.996,128.528 156.996 C 128.069 156.996,128.061 157.411,128.511 157.861 C 128.979 158.329,129.087 158.299,129.178 157.677 C 129.246 157.212,129.300 157.190,129.626 157.496 C 130.790 158.588,131.096 158.794,130.935 158.375 C 130.849 158.150,130.681 157.965,130.562 157.965 C 130.443 157.965,130.345 157.819,130.345 157.640 C 130.345 157.046,128.235 155.009,128.069 155.442 M222.351 155.906 C 222.415 156.239,222.358 156.511,222.225 156.511 C 222.092 156.511,221.917 156.702,221.836 156.935 C 221.755 157.168,221.472 157.686,221.206 158.086 C 220.940 158.486,220.619 159.044,220.494 159.326 C 220.369 159.608,219.986 160.060,219.643 160.330 C 219.299 160.600,219.019 160.957,219.019 161.123 C 219.019 161.914,217.952 163.478,217.120 163.908 C 216.632 164.160,216.190 164.394,216.139 164.429 C 216.011 164.515,217.913 166.268,221.082 168.985 C 222.013 169.783,222.829 170.496,222.895 170.571 C 223.022 170.714,228.896 175.477,230.505 176.741 C 231.014 177.141,231.663 177.669,231.947 177.914 C 232.232 178.158,232.765 178.536,233.131 178.753 C 233.498 178.970,233.798 179.221,233.798 179.312 C 233.798 179.402,233.974 179.544,234.190 179.626 C 234.498 179.744,234.553 179.664,234.447 179.257 C 234.297 178.682,234.763 178.074,235.355 178.074 C 235.572 178.074,235.736 177.869,235.736 177.598 C 235.736 177.336,236.036 176.763,236.402 176.325 C 236.769 175.887,237.177 175.354,237.311 175.141 C 238.243 173.652,238.922 172.744,239.103 172.744 C 239.219 172.744,239.384 172.553,239.469 172.320 C 239.823 171.353,240.381 170.583,240.830 170.440 C 241.783 170.138,240.960 169.292,235.736 165.204 C 234.870 164.526,233.886 163.737,233.549 163.451 C 233.212 163.165,232.068 162.279,231.005 161.481 C 229.943 160.684,229.019 159.973,228.952 159.901 C 228.458 159.373,222.648 155.300,222.388 155.300 C 222.304 155.300,222.288 155.572,222.351 155.906 " stroke="none" fill="#f2f2f2" fill-rule="evenodd"></path><path id="path3" d="M151.423 18.905 C 150.424 19.002,149.019 19.204,148.301 19.353 C 147.584 19.502,146.468 19.624,145.821 19.624 C 145.175 19.624,144.182 19.729,143.613 19.857 C 143.045 19.984,141.553 20.267,140.297 20.485 C 137.166 21.029,131.665 22.632,128.286 23.984 C 126.083 24.866,122.307 26.718,121.412 27.355 C 121.021 27.634,120.635 27.862,120.554 27.862 C 120.392 27.862,116.245 30.543,116.051 30.773 C 115.984 30.852,115.167 31.525,114.234 32.270 C 113.301 33.014,111.381 34.807,109.966 36.254 C 106.366 39.938,104.501 42.449,101.446 47.729 C 100.517 49.333,98.671 53.182,98.250 54.391 C 98.019 55.058,97.738 55.821,97.628 56.087 C 96.704 58.318,95.090 64.095,94.394 67.663 C 93.851 70.448,93.644 72.126,93.039 78.619 C 92.728 81.967,92.720 87.947,93.023 90.491 C 93.150 91.557,93.380 93.519,93.533 94.852 C 94.354 101.959,96.848 112.105,98.834 116.414 C 98.957 116.681,99.275 117.498,99.542 118.231 C 99.808 118.964,100.307 120.136,100.649 120.835 C 100.992 121.534,101.272 122.163,101.272 122.233 C 101.272 122.737,105.315 130.800,107.123 133.902 C 111.506 141.423,112.147 142.378,119.057 151.665 C 119.975 152.899,123.205 156.710,125.012 158.692 C 125.755 159.506,126.048 159.856,128.092 162.366 C 133.833 169.413,150.106 185.556,158.813 192.842 C 160.145 193.957,162.053 195.596,163.053 196.484 C 169.192 201.938,184.038 213.032,189.340 216.127 C 190.742 216.945,190.915 216.980,190.915 216.445 C 190.915 216.132,190.985 216.111,191.260 216.339 C 191.715 216.717,191.847 215.739,191.565 214.077 C 191.417 213.205,191.445 212.841,191.669 212.703 C 191.912 212.552,191.908 212.436,191.652 212.126 C 191.475 211.913,191.400 211.669,191.486 211.583 C 191.571 211.497,191.641 211.555,191.641 211.710 C 191.641 211.866,191.859 211.993,192.126 211.993 C 192.392 211.993,192.611 212.075,192.613 212.174 C 192.614 212.274,193.295 212.789,194.127 213.319 C 194.959 213.848,195.715 214.390,195.808 214.523 C 195.900 214.656,196.043 214.698,196.126 214.615 C 196.208 214.533,195.661 214.046,194.909 213.532 C 194.158 213.019,193.060 212.238,192.469 211.798 C 191.878 211.358,191.284 211.066,191.149 211.150 C 191.013 211.234,190.933 211.194,190.969 211.062 C 191.006 210.930,189.891 210.030,188.492 209.063 C 187.093 208.095,185.912 207.213,185.867 207.104 C 185.823 206.994,185.679 206.905,185.547 206.905 C 185.416 206.905,184.620 206.414,183.780 205.815 C 182.048 204.578,181.708 204.491,181.708 205.282 C 181.708 205.896,181.196 207.142,180.942 207.145 C 180.854 207.146,180.708 207.583,180.618 208.116 C 180.528 208.649,180.391 209.085,180.315 209.085 C 179.685 209.085,175.584 206.197,171.290 202.729 C 169.491 201.277,167.855 199.959,167.654 199.802 C 167.165 199.419,164.417 197.125,164.264 196.972 C 164.197 196.905,163.652 196.424,163.053 195.904 C 160.653 193.820,157.723 191.051,157.723 190.867 C 157.723 190.491,158.346 190.677,158.692 191.157 C 158.919 191.472,159.319 191.641,159.835 191.641 C 160.468 191.641,160.630 191.543,160.630 191.157 C 160.630 190.780,160.791 190.672,161.357 190.672 C 161.757 190.672,162.084 190.563,162.084 190.430 C 162.084 190.054,163.051 190.145,163.201 190.535 C 163.301 190.796,164.264 191.007,164.264 190.768 C 164.264 190.611,162.819 189.218,162.653 189.214 C 162.540 189.212,161.669 188.476,160.719 187.579 C 159.769 186.682,158.248 185.294,157.339 184.494 C 150.858 178.793,140.615 168.598,134.520 161.781 C 132.845 159.908,132.129 159.261,131.972 159.479 C 131.816 159.694,131.790 159.666,131.880 159.382 C 131.964 159.119,131.215 158.040,129.694 156.232 C 128.422 154.720,126.969 152.992,126.467 152.392 C 124.708 150.295,119.641 143.792,119.249 143.128 C 119.032 142.760,118.776 142.459,118.681 142.459 C 118.586 142.459,118.348 142.299,118.152 142.103 C 117.839 141.789,117.778 141.818,117.646 142.345 C 117.563 142.674,117.388 142.944,117.258 142.944 C 117.127 142.944,117.020 143.264,117.020 143.656 C 117.020 144.048,116.911 144.436,116.778 144.518 C 116.644 144.601,116.535 144.977,116.535 145.355 C 116.535 146.199,115.878 146.531,115.423 145.917 C 115.248 145.681,114.441 144.561,113.628 143.428 C 112.816 142.296,111.993 141.177,111.799 140.942 C 111.606 140.707,111.448 140.463,111.448 140.399 C 111.448 140.336,110.957 139.518,110.357 138.583 C 109.758 137.647,109.267 136.818,109.267 136.740 C 109.267 136.662,109.062 136.309,108.811 135.955 C 108.560 135.601,108.137 134.930,107.871 134.464 C 107.606 133.998,106.983 132.907,106.487 132.041 C 105.600 130.490,101.901 123.035,101.199 121.381 C 101.001 120.915,100.623 120.042,100.359 119.443 C 99.401 117.267,97.796 112.600,97.153 110.115 C 96.492 107.566,96.334 106.360,96.662 106.360 C 96.815 106.360,96.872 106.251,96.790 106.118 C 96.707 105.984,96.747 105.875,96.878 105.875 C 97.009 105.875,97.443 105.548,97.843 105.148 C 98.243 104.749,98.784 104.422,99.047 104.422 C 99.853 104.422,99.989 101.364,99.364 97.274 C 98.176 89.500,98.578 71.907,99.956 71.378 C 100.226 71.274,102.401 72.836,105.391 75.279 C 106.703 76.351,111.367 79.960,112.780 80.996 C 113.713 81.680,114.652 82.434,114.868 82.670 C 115.083 82.907,115.363 83.101,115.488 83.101 C 115.614 83.101,115.929 83.293,116.187 83.527 C 117.298 84.535,118.000 84.846,118.429 84.520 C 119.188 83.946,120.170 82.831,120.172 82.541 C 120.180 81.781,122.072 81.288,122.830 81.848 C 123.222 82.138,123.596 82.374,123.662 82.374 C 124.048 82.374,125.017 83.714,125.152 84.434 C 125.240 84.900,125.408 85.282,125.527 85.282 C 125.645 85.282,125.742 85.445,125.742 85.645 C 125.742 85.847,125.527 86.008,125.257 86.008 C 124.854 86.008,124.773 86.170,124.773 86.978 C 124.773 87.785,124.692 87.947,124.288 87.947 C 124.022 87.947,123.804 88.056,123.804 88.189 C 123.804 88.322,124.022 88.431,124.288 88.431 C 124.567 88.431,124.773 88.593,124.773 88.811 C 124.773 89.080,124.632 89.146,124.288 89.037 C 123.910 88.917,123.804 88.993,123.804 89.384 C 123.804 89.668,123.961 89.885,124.167 89.885 C 124.367 89.885,124.531 89.994,124.531 90.127 C 124.531 90.260,124.688 90.369,124.880 90.369 C 125.073 90.369,125.372 90.560,125.547 90.793 C 125.721 91.027,126.407 91.654,127.072 92.187 C 127.736 92.720,128.554 93.397,128.889 93.692 C 129.223 93.987,130.206 94.803,131.072 95.505 C 131.938 96.207,132.701 96.838,132.768 96.908 C 132.835 96.978,133.289 97.332,133.777 97.696 C 134.265 98.060,134.810 98.495,134.988 98.664 C 135.261 98.921,136.371 99.825,138.098 101.196 C 138.542 101.549,146.460 108.147,147.306 108.870 C 149.878 111.067,151.908 112.668,151.906 112.498 C 151.905 112.387,151.605 112.058,151.239 111.767 C 150.874 111.477,150.153 110.850,149.636 110.374 L 148.697 109.509 149.461 109.662 C 150.257 109.821,151.181 109.277,151.181 108.649 C 151.181 108.484,151.452 108.092,151.783 107.778 C 152.114 107.465,152.455 106.826,152.540 106.360 C 152.626 105.893,152.859 105.325,153.059 105.096 C 153.271 104.853,153.372 104.420,153.301 104.053 C 153.140 103.210,153.285 103.280,156.827 105.752 C 161.403 108.946,163.247 110.291,171.290 116.301 C 174.120 118.416,175.586 119.516,175.896 119.761 C 176.098 119.919,177.134 120.703,178.198 121.502 C 179.262 122.302,180.188 123.016,180.254 123.089 C 180.321 123.162,180.757 123.483,181.224 123.804 C 181.690 124.124,182.126 124.450,182.193 124.528 C 182.415 124.790,185.346 126.953,185.477 126.953 C 185.548 126.953,185.857 127.199,186.164 127.498 C 186.710 128.032,188.303 129.331,188.822 129.666 C 189.279 129.960,188.797 130.153,188.286 129.880 C 187.674 129.553,187.204 129.541,187.400 129.858 C 187.485 129.996,187.386 130.035,187.165 129.950 C 186.715 129.778,185.827 130.692,185.827 131.329 C 185.827 131.634,185.691 131.718,185.342 131.627 C 184.970 131.530,184.858 131.619,184.858 132.013 C 184.858 132.295,184.749 132.526,184.615 132.526 C 184.482 132.526,184.373 132.720,184.373 132.957 C 184.373 133.194,184.155 133.545,183.889 133.737 C 183.622 133.929,183.404 134.226,183.404 134.396 C 183.404 134.567,183.295 134.706,183.162 134.706 C 183.028 134.706,182.919 134.866,182.919 135.061 C 182.919 135.256,182.700 135.533,182.432 135.677 C 181.959 135.930,181.965 135.960,182.663 136.706 C 183.058 137.129,183.332 137.524,183.273 137.583 C 183.213 137.643,182.973 137.483,182.739 137.228 C 182.105 136.538,179.256 134.412,179.132 134.537 C 179.073 134.596,180.909 136.157,183.213 138.007 C 185.517 139.856,187.456 141.427,187.523 141.499 C 187.713 141.703,191.419 144.707,192.144 145.245 C 192.678 145.641,194.524 147.123,196.729 148.926 C 196.929 149.090,198.401 150.271,200.000 151.553 C 201.599 152.834,203.125 154.066,203.392 154.291 C 203.658 154.517,204.258 154.968,204.724 155.295 C 205.191 155.622,205.717 156.030,205.894 156.202 C 206.801 157.083,207.632 157.127,207.632 156.296 C 207.632 156.059,207.904 155.720,208.237 155.542 C 208.571 155.364,208.843 155.058,208.843 154.863 C 208.843 154.517,209.721 153.604,210.055 153.604 C 210.389 153.604,211.200 152.744,211.369 152.211 C 211.463 151.911,211.635 151.666,211.750 151.666 C 211.866 151.666,212.034 151.420,212.125 151.121 C 212.463 149.999,214.120 149.053,214.543 149.738 C 214.784 150.128,213.979 151.181,213.441 151.181 C 212.911 151.181,212.789 151.564,213.265 151.733 C 213.480 151.810,213.424 152.008,213.071 152.420 C 212.393 153.209,211.362 154.795,211.001 155.603 C 210.837 155.969,210.619 156.269,210.517 156.269 C 210.414 156.269,210.268 156.460,210.193 156.693 C 210.119 156.926,209.778 157.441,209.436 157.837 L 208.815 158.557 209.980 159.655 C 210.621 160.259,211.908 161.405,212.841 162.202 C 213.773 162.999,214.591 163.712,214.658 163.786 C 215.015 164.184,222.664 170.563,222.783 170.563 C 222.861 170.563,222.400 170.114,221.759 169.564 C 217.986 166.331,216.004 164.520,216.139 164.429 C 216.190 164.394,216.632 164.160,217.120 163.908 C 217.952 163.478,219.019 161.914,219.019 161.123 C 219.019 160.957,219.299 160.600,219.643 160.330 C 219.986 160.060,220.369 159.608,220.494 159.326 C 220.619 159.044,220.940 158.486,221.206 158.086 C 221.472 157.686,221.755 157.168,221.836 156.935 C 221.917 156.702,222.092 156.511,222.225 156.511 C 222.358 156.511,222.415 156.239,222.351 155.906 C 222.288 155.572,222.304 155.300,222.388 155.300 C 222.648 155.300,228.458 159.373,228.952 159.901 C 229.019 159.973,229.943 160.684,231.005 161.481 C 232.068 162.279,233.212 163.165,233.549 163.451 C 233.886 163.737,234.870 164.526,235.736 165.204 C 240.960 169.292,241.783 170.138,240.830 170.440 C 240.381 170.583,239.823 171.353,239.469 172.320 C 239.384 172.553,239.219 172.744,239.103 172.744 C 238.922 172.744,238.243 173.652,237.311 175.141 C 237.177 175.354,236.769 175.887,236.402 176.325 C 236.036 176.763,235.736 177.336,235.736 177.598 C 235.736 177.869,235.572 178.074,235.355 178.074 C 234.765 178.074,234.297 178.682,234.446 179.254 C 234.600 179.843,234.459 179.907,233.997 179.459 C 233.401 178.881,232.102 178.040,232.112 178.239 C 232.132 178.623,234.521 180.285,234.802 180.112 C 234.964 180.012,235.019 180.042,234.932 180.183 C 234.757 180.466,235.338 181.011,238.382 183.415 C 241.045 185.519,241.049 185.564,238.729 187.529 C 237.710 188.392,236.756 189.208,236.609 189.343 C 236.462 189.477,235.691 190.131,234.895 190.796 C 234.099 191.461,233.172 192.239,232.835 192.526 C 232.499 192.813,231.460 193.663,230.527 194.415 C 229.594 195.167,228.402 196.132,227.879 196.559 C 226.293 197.851,217.272 204.749,214.658 206.669 C 214.325 206.913,213.180 207.756,212.114 208.542 C 211.048 209.328,209.877 210.166,209.511 210.403 C 209.146 210.640,208.918 210.948,209.004 211.088 C 209.091 211.229,209.044 211.269,208.897 211.178 C 208.616 211.004,203.842 214.346,203.928 214.657 C 203.956 214.760,203.792 214.829,203.564 214.811 C 203.336 214.793,203.180 214.923,203.216 215.100 C 203.253 215.276,203.169 215.350,203.030 215.264 C 202.891 215.178,202.246 215.497,201.598 215.973 C 200.143 217.042,199.988 217.042,198.452 215.986 C 197.771 215.518,197.214 215.198,197.214 215.277 C 197.214 215.469,197.867 216.111,198.062 216.111 C 198.245 216.111,198.910 216.749,198.910 216.925 C 198.910 216.992,198.579 216.952,198.176 216.836 C 197.572 216.663,197.389 216.709,197.148 217.095 C 196.973 217.376,196.586 217.565,196.186 217.565 C 195.815 217.565,195.516 217.700,195.514 217.868 C 195.512 218.069,195.433 218.049,195.279 217.807 C 195.089 217.508,194.962 217.497,194.559 217.747 C 194.291 217.913,193.906 218.050,193.704 218.050 C 192.693 218.050,193.591 219.063,196.497 221.199 C 198.219 222.465,199.629 223.583,199.632 223.683 C 199.638 223.938,200.363 223.911,200.363 223.656 C 200.363 223.541,202.190 222.210,204.422 220.698 C 207.987 218.282,218.715 210.720,220.149 209.612 C 220.437 209.389,222.345 207.934,224.389 206.380 C 226.432 204.825,229.099 202.754,230.316 201.776 C 231.532 200.799,233.479 199.237,234.641 198.304 C 237.687 195.860,243.023 191.378,243.731 190.669 C 244.064 190.335,244.878 189.627,245.541 189.095 C 246.713 188.154,247.335 187.595,251.367 183.867 C 257.655 178.053,265.305 170.341,269.491 165.597 C 270.667 164.264,271.975 162.795,272.399 162.332 C 273.253 161.398,276.687 157.286,277.685 156.002 C 283.349 148.716,288.677 141.062,291.414 136.281 C 291.871 135.482,292.451 134.473,292.701 134.040 C 293.808 132.123,294.225 131.342,296.375 127.153 C 297.628 124.711,298.948 121.950,299.308 121.018 C 299.667 120.085,300.298 118.504,300.710 117.505 C 301.121 116.505,301.547 115.469,301.655 115.203 C 302.028 114.283,303.307 110.355,303.547 109.388 C 303.680 108.855,303.911 107.983,304.060 107.450 C 304.375 106.330,304.619 105.322,305.027 103.452 C 305.187 102.720,305.404 101.738,305.509 101.272 C 306.721 95.871,306.996 93.369,307.129 86.493 C 307.268 79.341,306.946 75.321,305.751 69.291 C 305.606 68.558,305.427 67.549,305.353 67.049 C 305.279 66.548,305.121 66.078,305.002 66.005 C 304.882 65.931,304.785 65.641,304.785 65.360 C 304.785 64.694,304.467 65.017,304.364 65.787 C 304.320 66.116,304.397 66.384,304.534 66.384 C 304.672 66.384,304.567 66.602,304.300 66.869 C 304.034 67.135,303.816 67.619,303.816 67.945 C 303.816 68.270,303.707 68.603,303.574 68.686 C 303.440 68.768,303.331 69.197,303.331 69.639 C 303.331 70.082,303.168 70.579,302.968 70.745 C 302.768 70.911,302.604 71.197,302.604 71.380 C 302.604 71.564,302.509 71.714,302.393 71.714 C 302.277 71.714,302.112 72.150,302.027 72.683 C 301.719 74.612,300.901 73.337,300.318 70.018 C 300.119 68.886,299.832 67.577,299.679 67.111 C 299.069 65.246,298.358 60.512,298.603 59.945 C 298.714 59.689,298.782 59.343,298.756 59.176 C 298.729 59.010,298.821 58.873,298.960 58.873 C 299.099 58.873,299.213 58.996,299.213 59.145 C 299.213 59.333,299.325 59.324,299.576 59.116 C 299.776 58.950,299.939 58.677,299.939 58.509 C 299.939 58.154,300.694 57.912,301.817 57.908 C 302.820 57.903,302.828 57.399,301.869 54.876 C 301.767 54.609,301.548 54.010,301.381 53.543 C 295.480 37.033,279.628 23.982,261.538 20.739 C 259.540 20.381,257.211 19.970,256.364 19.825 C 255.516 19.680,253.363 19.548,251.579 19.532 C 249.795 19.516,248.335 19.422,248.335 19.322 C 248.334 19.023,247.909 19.115,247.529 19.495 C 247.307 19.717,247.167 20.355,247.157 21.191 C 247.140 22.621,247.244 22.781,247.755 22.108 C 248.054 21.714,248.077 21.721,248.084 22.209 C 248.089 22.497,247.956 22.785,247.789 22.847 C 247.580 22.926,247.636 23.076,247.971 23.332 C 248.683 23.879,248.508 23.925,245.064 24.102 C 243.331 24.191,241.151 24.369,240.218 24.498 C 239.285 24.626,237.759 24.834,236.826 24.959 C 227.742 26.184,221.010 28.199,209.933 33.009 C 204.763 35.255,204.697 35.438,208.419 37.271 C 209.785 37.943,211.819 39.045,212.940 39.719 C 214.061 40.393,215.010 40.945,215.049 40.945 C 215.146 40.945,223.926 46.197,227.862 48.608 C 229.594 49.670,231.993 51.227,233.192 52.068 C 234.391 52.909,235.672 53.776,236.037 53.995 C 236.403 54.213,236.703 54.520,236.703 54.678 C 236.704 54.835,236.937 55.038,237.222 55.128 C 237.511 55.220,237.627 55.361,237.486 55.448 C 237.347 55.534,237.251 56.161,237.272 56.842 C 237.307 57.958,237.230 58.156,236.497 58.841 C 235.579 59.699,235.586 60.474,236.523 61.478 C 236.803 61.778,236.904 62.023,236.747 62.023 C 236.591 62.023,236.463 61.916,236.463 61.785 C 236.463 61.655,236.190 61.479,235.857 61.396 C 235.524 61.312,235.251 61.146,235.251 61.028 C 235.251 60.909,235.088 60.812,234.888 60.812 C 234.688 60.812,234.525 60.703,234.525 60.569 C 234.525 60.436,234.417 60.327,234.285 60.327 C 234.153 60.327,233.853 60.166,233.619 59.970 C 232.706 59.207,216.928 48.883,211.024 45.186 C 206.088 42.095,200.083 38.207,199.785 37.909 C 199.632 37.756,199.345 37.567,199.148 37.490 C 198.899 37.392,198.946 37.343,199.301 37.330 C 199.911 37.307,201.090 36.433,201.090 36.003 C 201.090 35.836,201.363 35.443,201.696 35.130 C 202.029 34.817,202.303 34.444,202.305 34.301 C 202.306 34.157,202.742 33.572,203.274 33.000 C 203.805 32.428,204.240 31.823,204.240 31.655 C 204.240 31.215,204.752 30.769,205.257 30.769 C 205.532 30.769,205.694 30.590,205.694 30.285 C 205.694 29.596,205.449 29.656,202.715 31.012 C 199.778 32.468,199.997 32.458,197.988 31.237 C 194.199 28.934,184.429 24.487,179.649 22.890 C 175.672 21.561,170.671 20.438,165.112 19.623 C 163.380 19.370,161.308 19.049,160.509 18.910 C 158.907 18.632,154.255 18.630,151.423 18.905 M166.543 20.502 C 166.634 20.738,166.501 21.062,166.206 21.317 C 165.625 21.821,165.586 22.047,166.081 22.047 C 166.503 22.047,166.571 22.667,166.175 22.912 C 166.027 23.004,165.809 22.928,165.691 22.745 C 165.510 22.465,165.438 22.469,165.242 22.774 C 165.037 23.093,164.957 23.086,164.591 22.720 C 164.196 22.326,164.200 22.280,164.665 21.872 C 164.935 21.635,165.230 21.142,165.320 20.775 C 165.505 20.028,166.294 19.852,166.543 20.502 M164.506 23.622 C 164.340 23.822,164.058 23.985,163.879 23.985 C 163.688 23.985,163.611 23.834,163.692 23.622 C 163.769 23.422,164.051 23.259,164.320 23.259 C 164.726 23.259,164.757 23.319,164.506 23.622 M163.295 24.958 C 169.166 25.559,177.886 27.843,184.858 30.606 C 190.731 32.934,196.615 36.335,214.416 47.692 C 224.718 54.266,241.867 66.020,250.878 72.684 C 251.545 73.177,253.180 74.376,254.512 75.348 C 258.486 78.249,259.596 79.094,259.681 79.285 C 259.725 79.385,259.907 79.467,260.085 79.467 C 260.262 79.467,260.444 79.555,260.489 79.663 C 260.533 79.770,261.060 80.199,261.660 80.614 C 262.259 81.030,263.022 81.628,263.356 81.943 C 264.097 82.645,274.793 91.274,282.645 97.506 C 295.175 107.450,296.918 108.855,297.095 109.160 C 297.273 109.465,296.779 111.368,296.298 112.232 C 296.169 112.463,296.063 112.850,296.063 113.092 C 296.063 113.333,295.967 113.635,295.849 113.761 C 295.731 113.888,295.391 114.700,295.094 115.566 C 294.796 116.432,294.457 117.245,294.339 117.371 C 294.221 117.498,294.125 117.745,294.125 117.919 C 294.125 118.273,293.097 120.524,290.941 124.894 C 285.267 136.395,277.374 147.825,266.768 159.903 C 265.774 161.036,264.844 162.073,264.703 162.208 C 264.561 162.342,263.914 163.051,263.263 163.782 C 260.189 167.238,250.853 176.391,250.469 176.327 C 250.242 176.288,246.698 173.575,242.593 170.297 C 231.846 161.715,223.658 155.421,217.323 150.874 C 216.457 150.252,215.639 149.657,215.506 149.551 C 215.373 149.445,214.446 148.736,213.446 147.974 C 212.447 147.212,211.030 146.122,210.297 145.552 C 197.470 135.567,183.834 125.225,169.352 114.499 C 165.954 111.982,162.574 109.476,161.841 108.929 C 159.825 107.425,149.186 99.792,147.455 98.607 C 147.163 98.407,144.878 96.772,142.377 94.973 C 139.875 93.174,137.588 91.538,137.294 91.339 C 136.999 91.139,135.468 90.048,133.891 88.916 C 132.313 87.783,129.821 86.024,128.352 85.006 C 126.883 83.989,125.495 83.008,125.268 82.826 C 125.041 82.644,124.680 82.386,124.465 82.253 C 124.250 82.120,120.879 79.662,116.974 76.790 C 113.068 73.919,107.874 70.170,105.430 68.460 L 100.988 65.351 101.144 64.474 C 101.231 63.992,101.401 63.271,101.524 62.871 C 102.043 61.172,102.772 58.959,102.960 58.510 C 103.072 58.243,103.411 57.371,103.714 56.572 C 105.195 52.663,108.765 46.380,111.046 43.668 C 123.107 29.325,141.526 22.729,163.295 24.958 M250.394 25.559 C 268.506 26.291,284.689 35.617,292.437 49.788 C 293.922 52.504,295.336 55.442,295.336 55.811 C 295.336 56.014,295.437 56.242,295.561 56.319 C 295.684 56.395,295.909 56.865,296.061 57.363 C 296.213 57.860,296.478 58.649,296.651 59.116 C 299.818 67.649,301.344 81.502,300.196 91.287 C 299.780 94.828,299.652 94.999,298.221 93.928 C 293.921 90.711,287.060 85.806,283.343 83.293 C 281.312 81.919,277.867 79.545,277.529 79.285 C 276.819 78.739,261.293 68.487,255.360 64.647 C 251.491 62.141,240.495 55.236,237.916 53.691 C 237.317 53.332,236.663 52.933,236.463 52.805 C 235.599 52.250,230.552 49.220,228.104 47.787 C 226.638 46.928,225.330 46.140,225.197 46.034 C 224.962 45.848,224.186 45.401,221.926 44.149 C 221.326 43.817,220.727 43.462,220.594 43.361 C 220.460 43.260,219.942 42.947,219.443 42.667 C 217.394 41.516,216.827 41.187,215.946 40.635 C 215.437 40.317,214.422 39.728,213.689 39.325 C 212.956 38.923,211.920 38.344,211.387 38.039 C 210.854 37.734,209.982 37.248,209.449 36.959 C 207.896 36.117,207.389 35.757,207.391 35.496 C 207.392 35.278,210.469 33.632,212.720 32.647 C 213.186 32.442,214.198 31.991,214.968 31.643 C 215.738 31.296,216.475 31.012,216.606 31.012 C 216.738 31.012,217.034 30.903,217.266 30.771 C 221.697 28.238,240.695 24.664,246.154 25.337 C 246.487 25.378,248.395 25.478,250.394 25.559 M279.002 27.770 C 280.191 28.385,281.217 28.967,281.284 29.062 C 281.351 29.158,282.021 29.627,282.773 30.105 C 286.735 32.621,294.852 40.698,294.852 42.125 C 294.852 42.253,294.939 42.395,295.045 42.439 C 295.682 42.706,296.307 44.700,295.821 44.919 C 295.554 45.039,295.336 45.282,295.336 45.458 C 295.336 45.634,294.841 46.004,294.236 46.280 C 293.564 46.586,293.047 47.013,292.909 47.376 C 292.551 48.318,292.050 47.879,288.871 43.832 C 285.589 39.655,277.500 32.223,276.235 32.223 C 275.872 32.223,275.876 31.913,276.245 31.545 C 276.471 31.318,276.444 31.254,276.124 31.254 C 275.873 31.254,275.712 31.064,275.712 30.769 C 275.712 30.446,275.873 30.285,276.196 30.285 C 276.718 30.285,276.862 29.901,276.399 29.746 C 276.231 29.691,276.100 29.044,276.075 28.151 C 276.023 26.280,276.105 26.269,279.002 27.770 M267.118 73.198 C 268.591 74.192,268.633 74.391,267.596 75.501 C 267.115 76.016,266.562 76.734,266.369 77.095 C 266.176 77.456,265.774 78.006,265.474 78.318 C 265.175 78.630,264.511 79.350,263.999 79.917 C 263.126 80.885,263.035 80.927,262.545 80.595 C 262.033 80.247,261.918 79.282,262.355 78.993 C 262.465 78.921,262.627 78.561,262.717 78.195 C 262.807 77.829,263.027 77.529,263.205 77.529 C 263.420 77.529,263.492 77.326,263.417 76.932 C 263.348 76.576,263.460 76.179,263.692 75.946 C 263.907 75.731,264.082 75.405,264.082 75.221 C 264.082 75.037,264.355 74.613,264.688 74.280 C 265.021 73.947,265.294 73.460,265.294 73.199 C 265.294 72.938,265.430 72.669,265.597 72.601 C 265.763 72.534,265.921 72.471,265.948 72.460 C 265.975 72.450,266.501 72.782,267.118 73.198 M264.325 74.016 C 264.325 74.216,264.222 74.379,264.097 74.379 C 263.791 74.379,263.572 74.001,263.766 73.807 C 264.039 73.534,264.325 73.641,264.325 74.016 M279.038 81.431 C 280.937 82.454,284.811 85.000,287.498 86.992 C 292.606 90.780,293.861 92.106,293.010 92.813 C 292.823 92.967,292.671 93.287,292.671 93.523 C 292.671 93.759,292.508 94.015,292.308 94.091 C 292.108 94.168,291.944 94.437,291.944 94.690 C 291.944 94.943,291.726 95.427,291.460 95.766 C 291.193 96.104,290.975 96.535,290.975 96.722 C 290.975 96.909,290.648 97.304,290.248 97.599 C 289.849 97.895,289.521 98.270,289.520 98.432 C 289.519 98.595,289.354 99.043,289.154 99.427 C 288.893 99.927,288.862 100.214,289.046 100.435 C 289.228 100.654,289.223 100.794,289.028 100.914 C 288.876 101.008,288.806 101.290,288.872 101.542 C 289.019 102.102,288.993 102.104,288.368 101.575 C 287.354 100.717,286.950 100.403,285.645 99.455 C 284.912 98.923,284.149 98.358,283.949 98.200 C 278.157 93.620,274.083 90.325,272.623 89.037 C 272.019 88.504,271.320 87.890,271.069 87.672 C 270.633 87.292,270.650 87.269,271.478 87.114 C 272.054 87.006,272.410 86.774,272.545 86.419 C 272.657 86.127,272.979 85.680,273.261 85.426 C 273.543 85.172,273.773 84.864,273.773 84.741 C 273.773 84.618,274.073 84.212,274.440 83.838 C 274.806 83.465,275.270 82.913,275.469 82.612 C 276.908 80.446,277.094 80.385,279.038 81.431 M125.984 86.750 C 125.984 86.875,125.821 86.978,125.621 86.978 C 125.246 86.978,125.140 86.692,125.412 86.419 C 125.606 86.225,125.984 86.444,125.984 86.750 M126.227 87.947 C 126.227 88.270,126.065 88.431,125.742 88.431 C 125.419 88.431,125.257 88.270,125.257 87.947 C 125.257 87.624,125.419 87.462,125.742 87.462 C 126.065 87.462,126.227 87.624,126.227 87.947 M127.196 87.826 C 127.196 88.025,127.087 88.189,126.953 88.189 C 126.820 88.189,126.711 88.025,126.711 87.826 C 126.711 87.626,126.820 87.462,126.953 87.462 C 127.087 87.462,127.196 87.626,127.196 87.826 M126.227 89.110 C 126.227 89.360,125.702 89.885,125.451 89.885 C 125.345 89.885,125.257 89.667,125.257 89.400 C 125.257 89.077,125.419 88.916,125.742 88.916 C 126.008 88.916,126.227 89.003,126.227 89.110 M152.208 112.798 C 152.296 112.941,153.219 113.741,154.258 114.575 C 155.297 115.409,155.657 115.640,155.058 115.088 C 153.626 113.772,152.005 112.469,152.208 112.798 M161.333 120.246 C 161.709 120.717,163.537 122.209,163.537 122.045 C 163.537 121.988,162.965 121.464,162.265 120.880 C 161.566 120.297,161.146 120.011,161.333 120.246 M164.991 123.172 C 164.991 123.228,165.536 123.730,166.202 124.288 C 166.869 124.846,167.407 125.211,167.400 125.098 C 167.386 124.894,164.991 122.979,164.991 123.172 M171.290 128.230 C 171.290 128.286,171.835 128.791,172.502 129.353 C 173.168 129.914,173.708 130.286,173.703 130.178 C 173.692 129.981,171.290 128.041,171.290 128.230 M189.918 130.433 C 190.140 130.700,190.077 130.741,189.587 130.648 C 189.254 130.584,189.042 130.436,189.115 130.318 C 189.305 130.010,189.602 130.053,189.918 130.433 M173.955 130.402 C 173.955 130.467,175.045 131.411,176.378 132.502 C 177.710 133.593,178.801 134.418,178.801 134.336 C 178.801 134.117,178.395 133.755,176.378 132.174 C 173.889 130.223,173.955 130.272,173.955 130.402 M130.345 157.640 C 130.345 157.819,130.443 157.965,130.562 157.965 C 130.681 157.965,130.849 158.150,130.935 158.375 C 131.096 158.794,130.790 158.588,129.626 157.496 C 129.300 157.190,129.246 157.212,129.178 157.677 C 129.087 158.299,128.979 158.329,128.511 157.861 C 128.061 157.411,128.069 156.996,128.528 156.996 C 129.064 156.996,128.970 156.486,128.407 156.339 C 127.892 156.204,127.835 156.053,128.069 155.442 C 128.235 155.009,130.345 157.046,130.345 157.640 M229.073 175.775 C 230.677 177.249,231.859 178.131,231.859 177.852 C 231.859 177.708,231.771 177.589,231.663 177.589 C 231.555 177.589,231.254 177.399,230.994 177.165 C 230.734 176.932,229.978 176.323,229.313 175.813 L 228.104 174.884 229.073 175.775 " stroke="none" fill="#bdbcbd" fill-rule="evenodd"></path><path id="path4" d="M165.320 20.775 C 165.230 21.142,164.935 21.635,164.665 21.872 C 164.200 22.280,164.196 22.326,164.591 22.720 C 164.957 23.086,165.037 23.093,165.242 22.774 C 165.438 22.469,165.510 22.465,165.691 22.745 C 165.809 22.928,166.027 23.004,166.175 22.912 C 166.571 22.667,166.503 22.047,166.081 22.047 C 165.586 22.047,165.625 21.821,166.206 21.317 C 166.776 20.823,166.618 20.109,165.939 20.109 C 165.645 20.109,165.427 20.344,165.320 20.775 M163.692 23.622 C 163.611 23.834,163.688 23.985,163.879 23.985 C 164.058 23.985,164.340 23.822,164.506 23.622 C 164.757 23.319,164.726 23.259,164.320 23.259 C 164.051 23.259,163.769 23.422,163.692 23.622 M161.720 25.075 C 164.855 25.466,166.099 25.513,165.354 25.213 C 165.088 25.106,163.561 24.956,161.962 24.880 L 159.055 24.743 161.720 25.075 M168.019 25.937 C 170.265 26.403,170.972 26.494,170.770 26.292 C 170.604 26.126,166.904 25.435,166.323 25.461 C 166.057 25.474,166.820 25.687,168.019 25.937 M172.623 26.909 C 173.555 27.160,174.424 27.333,174.554 27.293 C 174.826 27.209,171.709 26.397,171.240 26.430 C 171.068 26.442,171.690 26.658,172.623 26.909 M276.075 28.151 C 276.100 29.044,276.231 29.691,276.399 29.746 C 276.862 29.901,276.718 30.285,276.196 30.285 C 275.873 30.285,275.712 30.446,275.712 30.769 C 275.712 31.064,275.873 31.254,276.124 31.254 C 276.444 31.254,276.471 31.318,276.245 31.545 C 275.876 31.913,275.872 32.223,276.235 32.223 C 277.500 32.223,285.589 39.655,288.871 43.832 C 292.050 47.879,292.551 48.318,292.909 47.376 C 293.047 47.013,293.564 46.586,294.236 46.280 C 294.841 46.004,295.336 45.634,295.336 45.458 C 295.336 45.282,295.554 45.039,295.821 44.919 C 296.307 44.700,295.682 42.706,295.045 42.439 C 294.939 42.395,294.852 42.253,294.852 42.125 C 294.852 41.309,289.969 35.886,286.832 33.219 C 284.456 31.199,284.261 31.049,282.773 30.105 C 282.021 29.627,281.351 29.158,281.284 29.062 C 281.065 28.748,276.851 26.651,276.437 26.651 C 276.099 26.651,276.040 26.894,276.075 28.151 M176.136 27.862 C 176.336 27.991,176.717 28.091,176.984 28.083 L 177.468 28.070 176.984 27.862 C 176.259 27.551,175.654 27.551,176.136 27.862 M181.829 29.659 C 182.229 29.837,182.829 30.054,183.162 30.142 L 183.767 30.302 183.162 29.964 C 182.829 29.777,182.229 29.560,181.829 29.480 L 181.102 29.336 181.829 29.659 M184.832 30.791 C 185.418 31.051,185.941 31.221,185.993 31.168 C 186.098 31.063,184.231 30.274,183.944 30.302 C 183.847 30.311,184.247 30.532,184.832 30.791 M186.796 31.617 C 187.129 31.808,187.511 31.963,187.644 31.963 C 187.777 31.963,187.614 31.808,187.280 31.617 C 186.947 31.427,186.566 31.271,186.432 31.271 C 186.299 31.271,186.463 31.427,186.796 31.617 M188.512 32.315 C 188.759 32.541,191.641 33.913,191.641 33.805 C 191.641 33.669,188.842 32.223,188.579 32.223 C 188.487 32.223,188.456 32.264,188.512 32.315 M114.831 39.431 L 113.507 40.824 114.900 39.499 C 116.194 38.269,116.404 38.038,116.224 38.038 C 116.186 38.038,115.560 38.664,114.831 39.431 M239.370 64.534 C 239.370 64.601,239.697 64.888,240.097 65.173 C 240.497 65.457,240.824 65.636,240.824 65.569 C 240.824 65.502,240.497 65.215,240.097 64.930 C 239.697 64.646,239.370 64.467,239.370 64.534 M244.458 68.168 C 244.458 68.235,244.785 68.522,245.185 68.807 C 245.584 69.091,245.912 69.270,245.912 69.203 C 245.912 69.137,245.584 68.849,245.185 68.565 C 244.785 68.280,244.458 68.101,244.458 68.168 M247.123 70.106 C 247.123 70.173,247.450 70.460,247.850 70.745 C 248.250 71.030,248.577 71.208,248.577 71.141 C 248.577 71.075,248.250 70.787,247.850 70.503 C 247.450 70.218,247.123 70.040,247.123 70.106 M99.892 71.427 C 98.563 72.255,98.207 89.699,99.364 97.274 C 99.989 101.364,99.853 104.422,99.047 104.422 C 98.784 104.422,98.243 104.749,97.843 105.148 C 97.443 105.548,97.009 105.875,96.878 105.875 C 96.747 105.875,96.707 105.984,96.790 106.118 C 96.872 106.251,96.815 106.360,96.662 106.360 C 96.334 106.360,96.492 107.566,97.153 110.115 C 97.796 112.600,99.401 117.267,100.359 119.443 C 100.623 120.042,101.001 120.915,101.199 121.381 C 101.901 123.035,105.600 130.490,106.487 132.041 C 106.983 132.907,107.606 133.998,107.871 134.464 C 108.137 134.930,108.560 135.601,108.811 135.955 C 109.062 136.309,109.267 136.662,109.267 136.740 C 109.267 136.818,109.758 137.647,110.357 138.583 C 110.957 139.518,111.448 140.336,111.448 140.399 C 111.448 140.463,111.606 140.707,111.799 140.942 C 111.993 141.177,112.816 142.296,113.628 143.428 C 114.441 144.561,115.248 145.681,115.423 145.917 C 115.878 146.531,116.535 146.199,116.535 145.355 C 116.535 144.977,116.644 144.601,116.778 144.518 C 116.911 144.436,117.020 144.048,117.020 143.656 C 117.020 143.264,117.127 142.944,117.258 142.944 C 117.388 142.944,117.563 142.674,117.646 142.345 C 117.773 141.836,117.846 141.797,118.130 142.081 C 118.314 142.265,118.553 142.453,118.660 142.498 C 118.767 142.543,119.119 142.962,119.442 143.428 C 120.035 144.286,126.201 152.169,126.453 152.392 C 126.528 152.459,127.729 153.876,129.120 155.542 C 136.742 164.665,148.435 176.662,157.339 184.494 C 158.248 185.294,159.769 186.682,160.719 187.579 C 161.669 188.476,162.540 189.212,162.653 189.214 C 162.819 189.218,164.264 190.611,164.264 190.768 C 164.264 191.007,163.301 190.796,163.201 190.535 C 163.051 190.145,162.084 190.054,162.084 190.430 C 162.084 190.563,161.757 190.672,161.357 190.672 C 160.791 190.672,160.630 190.780,160.630 191.157 C 160.630 191.543,160.468 191.641,159.835 191.641 C 159.319 191.641,158.919 191.472,158.692 191.157 C 158.346 190.677,157.723 190.491,157.723 190.867 C 157.723 191.051,160.653 193.820,163.053 195.904 C 163.652 196.424,164.197 196.905,164.264 196.972 C 164.417 197.125,167.165 199.419,167.654 199.802 C 167.855 199.959,169.491 201.277,171.290 202.729 C 175.584 206.197,179.685 209.085,180.315 209.085 C 180.391 209.085,180.528 208.649,180.618 208.116 C 180.708 207.583,180.854 207.146,180.942 207.145 C 181.196 207.142,181.708 205.896,181.708 205.282 C 181.708 204.491,182.048 204.578,183.780 205.815 C 184.620 206.414,185.416 206.905,185.547 206.905 C 185.679 206.905,185.823 206.994,185.867 207.103 C 185.912 207.213,187.365 208.281,189.098 209.479 C 192.781 212.024,194.945 213.537,197.456 215.319 C 199.995 217.122,199.972 217.121,202.340 215.479 C 204.977 213.651,211.570 208.958,212.962 207.919 C 213.561 207.471,214.325 206.907,214.658 206.664 C 216.880 205.048,226.251 197.886,227.879 196.559 C 228.402 196.132,229.594 195.167,230.527 194.415 C 231.460 193.663,232.499 192.813,232.835 192.526 C 233.172 192.239,234.099 191.461,234.895 190.796 C 235.691 190.131,236.462 189.477,236.609 189.343 C 236.756 189.208,237.710 188.392,238.729 187.529 C 241.036 185.575,241.032 185.492,238.541 183.547 C 237.419 182.671,236.356 181.813,236.179 181.640 C 236.002 181.468,235.039 180.679,234.040 179.886 C 233.041 179.094,232.005 178.260,231.738 178.034 C 231.472 177.807,229.291 176.011,226.893 174.042 C 222.763 170.652,214.919 164.077,214.658 163.786 C 214.591 163.712,213.773 162.999,212.841 162.202 C 211.908 161.405,210.621 160.259,209.980 159.655 L 208.815 158.557 209.436 157.837 C 209.778 157.441,210.119 156.926,210.193 156.693 C 210.268 156.460,210.414 156.269,210.517 156.269 C 210.619 156.269,210.837 155.969,211.001 155.603 C 211.362 154.795,212.393 153.209,213.071 152.420 C 213.424 152.008,213.480 151.810,213.265 151.733 C 212.789 151.564,212.911 151.181,213.441 151.181 C 213.979 151.181,214.784 150.128,214.543 149.738 C 214.120 149.053,212.463 149.999,212.125 151.121 C 212.034 151.420,211.866 151.666,211.750 151.666 C 211.635 151.666,211.463 151.911,211.369 152.211 C 211.200 152.744,210.389 153.604,210.055 153.604 C 209.721 153.604,208.843 154.517,208.843 154.863 C 208.843 155.058,208.571 155.364,208.237 155.542 C 207.904 155.720,207.632 156.059,207.632 156.296 C 207.632 157.127,206.801 157.083,205.894 156.202 C 205.717 156.030,205.191 155.622,204.724 155.295 C 204.258 154.968,203.658 154.517,203.392 154.291 C 203.125 154.066,201.599 152.834,200.000 151.553 C 198.401 150.271,196.929 149.090,196.729 148.926 C 194.524 147.123,192.678 145.641,192.144 145.245 C 191.599 144.841,189.100 142.818,187.159 141.211 C 185.964 140.221,164.827 123.145,158.591 118.131 C 155.957 116.013,148.498 109.893,147.305 108.870 C 146.507 108.187,138.566 101.568,138.098 101.196 C 136.371 99.825,135.261 98.921,134.988 98.664 C 134.810 98.495,134.265 98.060,133.777 97.696 C 133.289 97.332,132.835 96.978,132.768 96.908 C 132.701 96.838,131.938 96.207,131.072 95.505 C 130.206 94.803,129.223 93.987,128.889 93.692 C 128.554 93.397,127.736 92.720,127.072 92.187 C 126.407 91.654,125.721 91.027,125.547 90.793 C 125.372 90.560,125.073 90.369,124.880 90.369 C 124.688 90.369,124.531 90.260,124.531 90.127 C 124.531 89.994,124.367 89.885,124.167 89.885 C 123.961 89.885,123.804 89.668,123.804 89.384 C 123.804 88.993,123.910 88.917,124.288 89.037 C 124.632 89.146,124.773 89.080,124.773 88.811 C 124.773 88.593,124.567 88.431,124.288 88.431 C 124.022 88.431,123.804 88.322,123.804 88.189 C 123.804 88.056,124.022 87.947,124.288 87.947 C 124.692 87.947,124.773 87.785,124.773 86.978 C 124.773 86.170,124.854 86.008,125.257 86.008 C 125.527 86.008,125.742 85.847,125.742 85.645 C 125.742 85.445,125.645 85.282,125.527 85.282 C 125.408 85.282,125.240 84.900,125.152 84.434 C 125.017 83.714,124.048 82.374,123.662 82.374 C 123.596 82.374,123.222 82.138,122.830 81.848 C 122.072 81.288,120.180 81.781,120.172 82.541 C 120.170 82.831,119.188 83.946,118.429 84.520 C 118.000 84.846,117.298 84.535,116.187 83.527 C 115.929 83.293,115.614 83.101,115.488 83.101 C 115.363 83.101,115.083 82.907,114.868 82.670 C 114.652 82.434,113.713 81.680,112.780 80.996 C 111.394 79.980,106.923 76.522,105.389 75.280 C 101.165 71.861,100.239 71.211,99.892 71.427 M249.061 71.522 C 249.261 71.725,251.987 73.796,255.118 76.124 C 258.250 78.453,262.365 81.574,264.264 83.060 C 267.946 85.942,268.962 86.567,265.839 84.030 C 264.806 83.191,263.689 82.249,263.356 81.937 C 263.022 81.625,262.259 81.030,261.660 80.614 C 261.060 80.199,260.533 79.770,260.489 79.663 C 260.444 79.555,260.262 79.467,260.085 79.467 C 259.907 79.467,259.725 79.385,259.681 79.285 C 259.595 79.092,258.414 78.194,254.512 75.352 C 253.180 74.382,251.708 73.298,251.242 72.942 C 249.923 71.938,248.659 71.114,249.061 71.522 M104.543 75.106 C 106.675 76.795,111.090 80.279,114.355 82.849 C 122.278 89.085,139.823 103.204,154.331 115.018 C 158.324 118.270,162.613 121.745,166.929 125.228 C 168.995 126.894,174.648 131.480,179.491 135.419 C 184.335 139.358,189.575 143.616,191.136 144.882 C 199.990 152.065,205.802 156.850,218.791 167.650 C 226.727 174.249,234.763 180.902,236.648 182.435 C 238.533 183.967,240.080 185.340,240.086 185.485 C 240.123 186.383,224.341 199.142,211.750 208.393 C 207.871 211.243,200.205 216.596,200.003 216.596 C 199.790 216.596,190.677 210.214,185.100 206.160 C 144.853 176.905,115.984 144.441,104.975 116.061 C 101.969 108.310,100.721 103.387,99.343 93.836 C 98.555 88.373,99.363 71.285,100.381 71.872 C 100.538 71.962,102.411 73.418,104.543 75.106 M265.597 72.601 C 265.430 72.669,265.294 72.938,265.294 73.199 C 265.294 73.460,265.021 73.947,264.688 74.280 C 264.355 74.613,264.082 75.037,264.082 75.221 C 264.082 75.405,263.907 75.731,263.692 75.946 C 263.460 76.179,263.348 76.576,263.417 76.932 C 263.492 77.326,263.420 77.529,263.205 77.529 C 263.027 77.529,262.807 77.829,262.717 78.195 C 262.627 78.561,262.465 78.921,262.355 78.993 C 261.918 79.282,262.033 80.247,262.545 80.595 C 263.035 80.927,263.126 80.885,263.999 79.917 C 264.511 79.350,265.175 78.630,265.474 78.318 C 265.774 78.006,266.176 77.456,266.369 77.095 C 266.562 76.734,267.115 76.016,267.596 75.501 C 268.078 74.985,268.420 74.426,268.356 74.259 C 268.260 74.007,266.105 72.398,265.948 72.460 C 265.921 72.471,265.763 72.534,265.597 72.601 M263.766 73.807 C 263.572 74.001,263.791 74.379,264.097 74.379 C 264.222 74.379,264.325 74.216,264.325 74.016 C 264.325 73.641,264.039 73.534,263.766 73.807 M116.352 76.216 C 116.431 76.344,117.014 76.821,117.648 77.277 C 118.282 77.732,118.736 78.000,118.657 77.872 C 118.578 77.744,117.995 77.267,117.361 76.812 C 116.727 76.357,116.273 76.089,116.352 76.216 M118.958 78.092 C 118.958 78.266,124.531 82.374,124.766 82.374 C 124.881 82.374,125.011 82.467,125.056 82.580 C 125.100 82.692,126.460 83.701,128.078 84.821 C 129.696 85.940,132.308 87.783,133.883 88.916 C 136.855 91.053,137.681 91.601,137.250 91.150 C 136.998 90.885,132.849 87.883,128.892 85.101 C 127.626 84.212,125.227 82.493,123.561 81.282 C 119.600 78.403,118.958 77.958,118.958 78.092 M125.412 86.419 C 125.140 86.692,125.246 86.978,125.621 86.978 C 125.821 86.978,125.984 86.875,125.984 86.750 C 125.984 86.444,125.606 86.225,125.412 86.419 M125.257 87.947 C 125.257 88.270,125.419 88.431,125.742 88.431 C 126.065 88.431,126.227 88.270,126.227 87.947 C 126.227 87.624,126.065 87.462,125.742 87.462 C 125.419 87.462,125.257 87.624,125.257 87.947 M126.711 87.826 C 126.711 88.025,126.820 88.189,126.953 88.189 C 127.087 88.189,127.196 88.025,127.196 87.826 C 127.196 87.626,127.087 87.462,126.953 87.462 C 126.820 87.462,126.711 87.626,126.711 87.826 M125.257 89.400 C 125.257 89.950,125.509 90.021,125.936 89.594 C 126.363 89.167,126.291 88.916,125.742 88.916 C 125.419 88.916,125.257 89.077,125.257 89.400 M137.698 91.522 C 137.793 91.675,138.214 92.045,138.634 92.344 C 139.054 92.643,139.320 92.762,139.225 92.609 C 139.130 92.456,138.709 92.086,138.289 91.787 C 137.870 91.488,137.604 91.369,137.698 91.522 M140.337 93.418 C 140.416 93.546,141.000 94.023,141.634 94.478 C 142.268 94.934,142.722 95.201,142.643 95.074 C 142.564 94.946,141.980 94.469,141.346 94.013 C 140.712 93.558,140.258 93.290,140.337 93.418 M142.944 95.303 C 142.944 95.370,143.271 95.657,143.671 95.942 C 144.070 96.227,144.397 96.405,144.397 96.338 C 144.397 96.272,144.070 95.984,143.671 95.700 C 143.271 95.415,142.944 95.237,142.944 95.303 M290.808 104.105 C 291.012 104.435,292.913 105.969,292.913 105.804 C 292.913 105.742,292.401 105.271,291.774 104.758 C 291.147 104.244,290.713 103.950,290.808 104.105 M294.243 106.894 C 296.895 109.178,297.041 109.368,296.782 110.204 C 296.653 110.622,296.440 111.310,296.309 111.734 C 296.179 112.158,296.160 112.404,296.269 112.279 C 296.645 111.849,297.271 109.460,297.091 109.143 C 296.992 108.967,296.039 108.155,294.973 107.338 C 293.907 106.522,293.578 106.322,294.243 106.894 M295.849 112.821 C 295.833 112.977,295.750 113.304,295.664 113.548 C 295.542 113.892,295.575 113.929,295.808 113.714 C 295.973 113.562,296.056 113.235,295.993 112.988 C 295.929 112.740,295.864 112.665,295.849 112.821 M294.730 115.809 C 294.640 116.095,294.620 116.384,294.686 116.451 C 294.753 116.517,294.882 116.337,294.973 116.051 C 295.064 115.764,295.084 115.475,295.017 115.409 C 294.950 115.342,294.821 115.522,294.730 115.809 M293.597 118.623 C 293.385 119.140,293.034 119.973,292.817 120.472 C 292.600 120.972,292.474 121.381,292.537 121.381 C 292.733 121.381,294.146 118.174,294.062 117.921 C 294.018 117.789,293.809 118.105,293.597 118.623 M291.616 122.991 C 291.251 123.736,291.000 124.394,291.060 124.453 C 291.119 124.513,291.465 123.951,291.830 123.205 C 292.195 122.460,292.446 121.802,292.387 121.743 C 292.329 121.685,291.982 122.246,291.616 122.991 M290.369 125.500 C 290.150 125.924,290.022 126.323,290.084 126.385 C 290.147 126.448,290.373 126.147,290.588 125.718 C 290.802 125.288,290.930 124.890,290.873 124.832 C 290.816 124.775,290.589 125.075,290.369 125.500 M288.788 128.589 C 281.147 142.667,271.000 155.784,255.990 170.986 C 250.452 176.595,250.631 176.482,249.171 175.308 C 248.578 174.830,247.601 174.045,247.002 173.563 C 246.402 173.080,245.912 172.743,245.912 172.814 C 245.912 173.069,250.227 176.378,250.559 176.378 C 250.886 176.378,260.822 166.527,263.263 163.782 C 263.914 163.051,264.561 162.342,264.703 162.208 C 268.274 158.802,277.346 147.226,282.363 139.673 C 284.456 136.522,288.310 130.249,288.310 129.994 C 288.310 129.932,288.617 129.359,288.991 128.721 C 289.693 127.524,290.060 126.711,289.899 126.711 C 289.849 126.711,289.349 127.556,288.788 128.589 M193.580 132.602 C 193.580 132.662,193.980 133.016,194.469 133.389 C 194.958 133.762,195.282 133.944,195.189 133.792 C 194.997 133.482,193.580 132.433,193.580 132.602 M201.575 138.677 C 201.575 138.734,203.237 140.071,205.270 141.647 C 207.302 143.223,209.564 144.979,210.297 145.551 C 211.030 146.122,212.447 147.210,213.446 147.970 C 214.446 148.729,215.318 149.408,215.385 149.478 C 215.451 149.549,215.833 149.833,216.233 150.111 C 216.632 150.389,217.532 151.026,218.231 151.527 C 220.987 153.501,219.282 152.042,215.324 149.040 C 213.025 147.296,208.992 144.228,206.360 142.221 C 203.728 140.215,201.575 138.620,201.575 138.677 M219.746 152.473 C 219.746 152.540,220.182 152.939,220.715 153.362 C 221.248 153.784,221.684 154.075,221.684 154.008 C 221.684 153.941,221.248 153.541,220.715 153.119 C 220.182 152.697,219.746 152.406,219.746 152.473 M243.564 170.974 C 243.768 171.303,245.669 172.837,245.669 172.672 C 245.669 172.610,245.157 172.140,244.530 171.626 C 243.903 171.113,243.468 170.819,243.564 170.974 " stroke="none" fill="#a3aab4" fill-rule="evenodd"></path></g></svg>